<svg xmlns="http://www.w3.org/2000/svg" xmlns:xlink="http://www.w3.org/1999/xlink" width="500" viewBox="0 0 375 374.999991" height="500" preserveAspectRatio="xMidYMid meet"><defs><g></g><clipPath id="id1"><path d="M 184 88 L 254.367188 88 L 254.367188 163 L 184 163 Z M 184 88 " clip-rule="nonzero"></path></clipPath><clipPath id="id2"><path d="M 163 131 L 237 131 L 237 202.886719 L 163 202.886719 Z M 163 131 " clip-rule="nonzero"></path></clipPath><clipPath id="id3"><path d="M 170 165 L 215 165 L 215 202.886719 L 170 202.886719 Z M 170 165 " clip-rule="nonzero"></path></clipPath><clipPath id="id4"><path d="M 153 42.386719 L 163 42.386719 L 163 53 L 153 53 Z M 153 42.386719 " clip-rule="nonzero"></path></clipPath></defs><path fill="#f9ed32" d="M 190.953125 64.519531 C 191.527344 64.519531 192.09375 64.464844 192.65625 64.355469 C 193.21875 64.242188 193.765625 64.078125 194.296875 63.859375 C 194.824219 63.640625 195.328125 63.371094 195.804688 63.054688 C 196.28125 62.738281 196.722656 62.375 197.128906 61.972656 C 197.535156 61.566406 197.898438 61.128906 198.214844 60.652344 C 198.535156 60.179688 198.804688 59.675781 199.023438 59.148438 C 199.242188 58.621094 199.410156 58.078125 199.519531 57.515625 C 199.632812 56.957031 199.691406 56.390625 199.691406 55.816406 C 199.691406 55.246094 199.636719 54.679688 199.523438 54.121094 C 199.410156 53.558594 199.246094 53.015625 199.027344 52.484375 C 198.808594 51.957031 198.539062 51.457031 198.222656 50.980469 C 197.902344 50.503906 197.542969 50.066406 197.136719 49.660156 C 196.730469 49.253906 196.292969 48.894531 195.816406 48.574219 C 195.339844 48.257812 194.835938 47.988281 194.304688 47.769531 C 193.777344 47.550781 193.230469 47.386719 192.667969 47.273438 C 192.105469 47.160156 191.539062 47.105469 190.964844 47.101562 C 190.390625 47.101562 189.824219 47.15625 189.261719 47.269531 C 188.699219 47.378906 188.152344 47.542969 187.621094 47.761719 C 187.089844 47.980469 186.585938 48.246094 186.109375 48.5625 C 185.632812 48.878906 185.191406 49.242188 184.785156 49.644531 C 184.378906 50.046875 184.015625 50.488281 183.695312 50.960938 C 183.378906 51.4375 183.109375 51.9375 182.886719 52.464844 C 182.667969 52.992188 182.5 53.535156 182.386719 54.097656 C 182.273438 54.65625 182.21875 55.222656 182.214844 55.796875 C 182.214844 56.367188 182.273438 56.933594 182.382812 57.496094 C 182.496094 58.058594 182.660156 58.601562 182.882812 59.128906 C 183.101562 59.660156 183.371094 60.160156 183.6875 60.636719 C 184.007812 61.113281 184.367188 61.554688 184.773438 61.960938 C 185.179688 62.363281 185.621094 62.726562 186.097656 63.042969 C 186.574219 63.363281 187.078125 63.632812 187.609375 63.851562 C 188.140625 64.070312 188.683594 64.238281 189.246094 64.351562 C 189.8125 64.460938 190.378906 64.519531 190.953125 64.519531 Z M 190.953125 64.519531 " fill-opacity="0.7765" fill-rule="evenodd"></path><path fill="#662d91" d="M 233.277344 71.234375 C 235.648438 73.980469 237.613281 76.988281 239.164062 80.265625 C 240.714844 83.542969 241.800781 86.964844 242.414062 90.535156 C 244.1875 100.859375 241.484375 110.417969 243.378906 116.839844 C 243.824219 118.28125 244.417969 119.65625 245.160156 120.96875 C 244.277344 121.480469 243.363281 121.945312 242.425781 122.355469 C 241.484375 122.761719 240.527344 123.117188 239.546875 123.417969 C 238.566406 123.71875 237.570312 123.960938 236.5625 124.148438 C 235.554688 124.332031 234.539062 124.460938 233.515625 124.53125 C 232.496094 124.601562 231.472656 124.613281 230.449219 124.566406 C 229.421875 124.519531 228.40625 124.414062 227.394531 124.25 C 226.382812 124.085938 225.382812 123.863281 224.394531 123.585938 C 223.410156 123.308594 222.441406 122.976562 221.492188 122.585938 C 220.546875 122.199219 219.625 121.753906 218.726562 121.261719 C 217.828125 120.765625 216.964844 120.222656 216.128906 119.628906 C 215.292969 119.035156 214.496094 118.398438 213.734375 117.710938 C 212.972656 117.027344 212.253906 116.300781 211.578125 115.535156 C 210.902344 114.769531 210.269531 113.964844 209.683594 113.125 C 209.101562 112.285156 208.566406 111.417969 208.082031 110.515625 C 207.59375 109.617188 207.164062 108.691406 206.785156 107.742188 C 206.40625 106.792969 206.085938 105.824219 205.820312 104.835938 C 205.550781 103.847656 205.34375 102.851562 205.191406 101.839844 C 205.039062 100.828125 204.945312 99.8125 204.914062 98.792969 C 204.878906 97.769531 204.902344 96.75 204.984375 95.734375 C 205.066406 94.714844 205.210938 93.703125 205.410156 92.703125 C 205.609375 91.699219 205.863281 90.710938 206.175781 89.738281 C 206.488281 88.765625 206.859375 87.8125 207.28125 86.882812 C 207.703125 85.953125 208.179688 85.046875 208.703125 84.171875 C 209.230469 83.292969 209.808594 82.449219 210.429688 81.640625 C 211.054688 80.828125 211.722656 80.058594 212.4375 79.324219 C 213.148438 78.589844 213.902344 77.898438 214.695312 77.25 C 215.488281 76.601562 216.3125 76 217.175781 75.445312 C 218.039062 74.894531 218.929688 74.390625 219.847656 73.9375 C 220.765625 73.488281 221.710938 73.089844 222.675781 72.746094 C 223.640625 72.402344 224.621094 72.113281 225.621094 71.882812 C 226.621094 71.652344 227.628906 71.480469 228.648438 71.363281 C 229.664062 71.246094 230.6875 71.191406 231.710938 71.191406 C 232.214844 71.191406 232.75 71.207031 233.277344 71.234375 Z M 233.277344 71.234375 " fill-opacity="0.7765" fill-rule="evenodd"></path><g clip-path="url(#id1)"><path fill="#92278f" d="M 242.9375 95.078125 C 243.496094 103.628906 241.765625 111.371094 243.378906 116.863281 C 246.144531 126.242188 258.386719 134.738281 252.664062 139.566406 C 250.855469 141.011719 247.738281 141.105469 245.914062 142.523438 C 243.003906 144.789062 244.992188 147.234375 245.25 149 C 245.375 149.835938 244.613281 151.183594 242.097656 152.820312 C 243.996094 154.21875 243.824219 155.402344 243.144531 156.492188 C 242.21875 157.125 241.265625 157.710938 240.285156 158.257812 C 239.308594 158.804688 238.304688 159.308594 237.28125 159.765625 C 236.253906 160.222656 235.210938 160.632812 234.148438 160.992188 C 233.085938 161.355469 232.011719 161.671875 230.921875 161.9375 C 229.828125 162.199219 228.730469 162.417969 227.621094 162.582031 C 226.507812 162.75 225.394531 162.867188 224.273438 162.929688 C 223.152344 162.996094 222.03125 163.011719 220.910156 162.976562 C 219.785156 162.941406 218.667969 162.855469 217.554688 162.71875 C 216.441406 162.585938 215.335938 162.398438 214.238281 162.164062 C 213.140625 161.925781 212.054688 161.644531 210.984375 161.308594 C 209.910156 160.976562 208.855469 160.59375 207.820312 160.167969 C 206.78125 159.738281 205.765625 159.265625 204.773438 158.746094 C 203.78125 158.222656 202.8125 157.660156 201.867188 157.054688 C 200.925781 156.445312 200.011719 155.796875 199.128906 155.109375 C 198.242188 154.417969 197.390625 153.691406 196.574219 152.925781 C 195.753906 152.160156 194.972656 151.355469 194.230469 150.519531 C 193.484375 149.683594 192.777344 148.816406 192.109375 147.914062 C 191.445312 147.015625 190.820312 146.085938 190.238281 145.128906 C 189.65625 144.171875 189.117188 143.191406 188.621094 142.1875 C 188.128906 141.179688 187.683594 140.15625 187.28125 139.109375 C 186.882812 138.066406 186.527344 137.003906 186.226562 135.925781 C 185.921875 134.851562 185.664062 133.761719 185.460938 132.660156 C 185.253906 131.5625 185.101562 130.453125 184.996094 129.339844 C 184.890625 128.226562 184.835938 127.109375 184.832031 125.988281 C 184.828125 124.871094 184.875 123.753906 184.972656 122.640625 C 185.070312 121.523438 185.21875 120.417969 185.414062 119.316406 C 185.613281 118.214844 185.859375 117.125 186.15625 116.042969 C 186.453125 114.964844 186.800781 113.902344 187.195312 112.851562 C 187.585938 111.804688 188.027344 110.777344 188.511719 109.769531 C 189 108.761719 189.53125 107.777344 190.109375 106.816406 C 190.683594 105.855469 191.300781 104.921875 191.960938 104.015625 C 192.621094 103.113281 193.324219 102.238281 194.0625 101.398438 C 194.800781 100.554688 195.578125 99.75 196.390625 98.976562 C 197.203125 98.207031 198.050781 97.472656 198.929688 96.777344 C 199.808594 96.082031 200.71875 95.425781 201.65625 94.8125 C 202.597656 94.199219 203.5625 93.628906 204.550781 93.101562 C 205.542969 92.574219 206.554688 92.09375 207.589844 91.660156 C 208.621094 91.222656 209.675781 90.835938 210.742188 90.496094 C 211.8125 90.15625 212.894531 89.863281 213.992188 89.621094 C 215.085938 89.378906 216.191406 89.183594 217.304688 89.039062 C 218.417969 88.898438 219.535156 88.804688 220.660156 88.761719 C 221.78125 88.71875 222.902344 88.726562 224.023438 88.785156 C 225.144531 88.84375 226.261719 88.953125 227.371094 89.109375 C 228.480469 89.269531 229.585938 89.476562 230.675781 89.734375 C 231.769531 89.996094 232.847656 90.300781 233.910156 90.65625 C 234.976562 91.011719 236.023438 91.414062 237.050781 91.863281 C 238.078125 92.3125 239.085938 92.808594 240.066406 93.347656 C 241.050781 93.890625 242.007812 94.472656 242.9375 95.097656 Z M 242.9375 95.078125 " fill-opacity="0.7765" fill-rule="evenodd"></path></g><g clip-path="url(#id2)"><path fill="#007fc6" d="M 234.960938 177.125 C 220.8125 182.867188 201.871094 163.605469 199.320312 202.886719 C 190.121094 196.867188 180.371094 191.921875 170.074219 188.050781 C 169.648438 187.429688 169.242188 186.796875 168.859375 186.148438 C 168.476562 185.5 168.109375 184.84375 167.769531 184.171875 C 167.425781 183.503906 167.101562 182.824219 166.800781 182.132812 C 166.5 181.441406 166.222656 180.746094 165.964844 180.035156 C 165.710938 179.328125 165.476562 178.613281 165.265625 177.894531 C 165.050781 177.171875 164.863281 176.445312 164.695312 175.710938 C 164.53125 174.976562 164.386719 174.238281 164.269531 173.496094 C 164.148438 172.753906 164.050781 172.007812 163.976562 171.257812 C 163.90625 170.511719 163.855469 169.757812 163.828125 169.007812 C 163.804688 168.257812 163.800781 167.503906 163.824219 166.753906 C 163.84375 166 163.886719 165.25 163.957031 164.5 C 164.023438 163.753906 164.117188 163.007812 164.230469 162.261719 C 164.347656 161.519531 164.484375 160.78125 164.644531 160.046875 C 164.808594 159.3125 164.992188 158.582031 165.199219 157.859375 C 165.40625 157.136719 165.636719 156.417969 165.886719 155.710938 C 166.140625 155 166.414062 154.300781 166.710938 153.609375 C 167.007812 152.917969 167.324219 152.234375 167.664062 151.5625 C 168 150.890625 168.359375 150.230469 168.742188 149.582031 C 169.121094 148.929688 169.523438 148.292969 169.941406 147.667969 C 170.363281 147.042969 170.800781 146.433594 171.261719 145.835938 C 171.71875 145.238281 172.195312 144.65625 172.691406 144.089844 C 173.1875 143.519531 173.699219 142.96875 174.226562 142.433594 C 174.757812 141.898438 175.304688 141.378906 175.867188 140.878906 C 176.429688 140.375 177.003906 139.894531 177.597656 139.425781 C 178.191406 138.960938 178.796875 138.515625 179.417969 138.085938 C 180.039062 137.660156 180.671875 137.25 181.320312 136.863281 C 181.964844 136.476562 182.621094 136.105469 183.292969 135.757812 C 183.960938 135.414062 184.640625 135.085938 185.332031 134.78125 C 186.019531 134.476562 186.71875 134.191406 187.425781 133.933594 C 188.132812 133.671875 188.847656 133.429688 189.570312 133.214844 C 190.292969 132.996094 191.023438 132.804688 191.757812 132.632812 C 192.492188 132.460938 193.230469 132.3125 193.976562 132.1875 C 194.71875 132.0625 195.46875 131.960938 196.21875 131.882812 C 196.96875 131.800781 197.71875 131.746094 198.472656 131.714844 C 199.226562 131.683594 199.980469 131.675781 200.738281 131.691406 C 201.492188 131.707031 202.246094 131.746094 202.996094 131.808594 C 203.75 131.867188 204.496094 131.953125 205.242188 132.0625 C 205.992188 132.171875 206.734375 132.304688 207.472656 132.460938 C 208.210938 132.613281 208.941406 132.792969 209.667969 132.992188 C 210.398438 133.195312 211.117188 133.417969 211.832031 133.664062 C 212.542969 133.910156 213.25 134.175781 213.945312 134.464844 C 214.640625 134.753906 215.328125 135.066406 216.003906 135.398438 C 216.679688 135.730469 217.347656 136.085938 218.003906 136.457031 C 218.65625 136.832031 219.300781 137.226562 219.929688 137.640625 C 220.558594 138.054688 221.175781 138.488281 221.777344 138.941406 C 222.382812 139.394531 222.96875 139.863281 223.542969 140.351562 C 224.117188 140.84375 224.671875 141.347656 225.214844 141.871094 C 225.757812 142.394531 226.28125 142.9375 226.789062 143.492188 C 227.296875 144.050781 227.785156 144.621094 228.257812 145.207031 C 228.730469 145.796875 229.179688 146.394531 229.617188 147.011719 C 230.050781 147.628906 230.464844 148.253906 230.859375 148.894531 C 231.253906 149.539062 231.628906 150.191406 231.980469 150.855469 C 232.335938 151.519531 232.667969 152.195312 232.976562 152.878906 C 233.289062 153.5625 233.578125 154.257812 233.847656 154.960938 C 234.113281 155.664062 234.359375 156.375 234.582031 157.09375 C 234.804688 157.8125 235.007812 158.539062 235.183594 159.269531 C 235.363281 160 235.515625 160.734375 235.648438 161.476562 C 235.78125 162.214844 235.886719 162.960938 235.972656 163.707031 C 236.058594 164.457031 236.117188 165.203125 236.15625 165.957031 C 236.195312 166.707031 236.207031 167.457031 236.199219 168.210938 C 236.191406 168.964844 236.15625 169.714844 236.101562 170.464844 C 236.042969 171.214844 235.964844 171.960938 235.859375 172.707031 C 235.757812 173.453125 235.628906 174.191406 235.480469 174.929688 C 235.332031 175.667969 235.15625 176.398438 234.960938 177.125 Z M 234.960938 177.125 " fill-opacity="0.7765" fill-rule="evenodd"></path></g><g clip-path="url(#id3)"><path fill="#01a6e6" d="M 214.1875 177.328125 C 206.710938 177.640625 200.683594 181.929688 199.320312 202.886719 C 190.171875 196.902344 180.480469 191.976562 170.246094 188.113281 C 170.277344 186.839844 170.410156 185.578125 170.648438 184.324219 C 170.886719 183.074219 171.222656 181.847656 171.664062 180.652344 C 172.101562 179.453125 172.632812 178.300781 173.261719 177.191406 C 173.890625 176.082031 174.605469 175.03125 175.40625 174.035156 C 176.203125 173.042969 177.082031 172.121094 178.03125 171.269531 C 178.984375 170.417969 180 169.652344 181.078125 168.964844 C 182.15625 168.28125 183.28125 167.6875 184.457031 167.183594 C 185.632812 166.683594 186.839844 166.28125 188.082031 165.976562 C 189.320312 165.671875 190.578125 165.46875 191.855469 165.371094 C 193.128906 165.269531 194.402344 165.273438 195.675781 165.382812 C 196.949219 165.488281 198.207031 165.699219 199.445312 166.011719 C 200.683594 166.328125 201.890625 166.738281 203.0625 167.246094 C 204.234375 167.757812 205.355469 168.355469 206.429688 169.050781 C 207.5 169.742188 208.511719 170.515625 209.457031 171.375 C 210.402344 172.230469 211.273438 173.160156 212.066406 174.15625 C 212.859375 175.15625 213.566406 176.210938 214.1875 177.328125 Z M 214.1875 177.328125 " fill-opacity="0.7765" fill-rule="evenodd"></path></g><path fill="#2063b2" d="M 248.378906 141.324219 C 247.492188 141.582031 246.667969 141.972656 245.914062 142.503906 C 243.003906 144.765625 244.992188 147.210938 245.25 148.976562 C 245.375 149.816406 244.613281 151.160156 242.097656 152.796875 C 245.003906 154.9375 243.050781 156.574219 241.878906 158.148438 C 236.4375 162.058594 244.007812 170.535156 235.03125 177.101562 C 225.96875 180.824219 214.949219 174.261719 207.507812 179.296875 C 207.390625 178.621094 207.292969 177.941406 207.21875 177.257812 C 207.140625 176.574219 207.085938 175.886719 207.054688 175.199219 C 207.023438 174.511719 207.011719 173.824219 207.019531 173.136719 C 207.03125 172.449219 207.0625 171.761719 207.113281 171.078125 C 207.164062 170.390625 207.238281 169.707031 207.335938 169.027344 C 207.429688 168.34375 207.546875 167.667969 207.683594 166.992188 C 207.820312 166.320312 207.980469 165.652344 208.15625 164.988281 C 208.335938 164.320312 208.535156 163.664062 208.753906 163.011719 C 208.976562 162.359375 209.214844 161.714844 209.476562 161.078125 C 209.734375 160.441406 210.015625 159.8125 210.3125 159.191406 C 210.613281 158.574219 210.929688 157.960938 211.269531 157.363281 C 211.605469 156.761719 211.960938 156.171875 212.335938 155.59375 C 212.707031 155.015625 213.097656 154.449219 213.507812 153.898438 C 213.917969 153.34375 214.34375 152.800781 214.785156 152.273438 C 215.226562 151.746094 215.6875 151.234375 216.160156 150.734375 C 216.636719 150.234375 217.125 149.75 217.628906 149.28125 C 218.136719 148.8125 218.652344 148.359375 219.1875 147.921875 C 219.71875 147.484375 220.265625 147.066406 220.824219 146.660156 C 221.382812 146.257812 221.953125 145.871094 222.539062 145.503906 C 223.121094 145.136719 223.714844 144.785156 224.320312 144.457031 C 224.925781 144.125 225.539062 143.8125 226.164062 143.519531 C 226.789062 143.226562 227.421875 142.953125 228.0625 142.699219 C 228.703125 142.445312 229.351562 142.210938 230.007812 141.996094 C 230.664062 141.78125 231.324219 141.589844 231.992188 141.414062 C 232.660156 141.242188 233.332031 141.089844 234.011719 140.957031 C 234.6875 140.828125 235.367188 140.71875 236.050781 140.628906 C 236.738281 140.539062 237.421875 140.46875 238.113281 140.421875 C 238.800781 140.375 239.488281 140.351562 240.179688 140.347656 C 240.867188 140.34375 241.558594 140.359375 242.246094 140.398438 C 242.9375 140.433594 243.625 140.496094 244.308594 140.574219 C 244.996094 140.65625 245.675781 140.757812 246.355469 140.882812 C 247.035156 141.003906 247.707031 141.148438 248.378906 141.3125 Z M 248.378906 141.324219 " fill-opacity="0.7765" fill-rule="evenodd"></path><path fill="#12bcbc" d="M 143.144531 141.742188 C 143.996094 141.742188 144.835938 141.660156 145.671875 141.496094 C 146.503906 141.332031 147.3125 141.085938 148.097656 140.761719 C 148.882812 140.4375 149.628906 140.042969 150.335938 139.570312 C 151.042969 139.101562 151.699219 138.566406 152.296875 137.964844 C 152.898438 137.367188 153.4375 136.714844 153.910156 136.011719 C 154.378906 135.308594 154.78125 134.5625 155.105469 133.78125 C 155.429688 133 155.675781 132.191406 155.839844 131.363281 C 156.007812 130.53125 156.089844 129.691406 156.089844 128.84375 C 156.089844 127.996094 156.007812 127.160156 155.84375 126.328125 C 155.675781 125.496094 155.429688 124.691406 155.105469 123.910156 C 154.78125 123.125 154.382812 122.382812 153.910156 121.679688 C 153.4375 120.976562 152.902344 120.324219 152.300781 119.722656 C 151.699219 119.125 151.046875 118.589844 150.339844 118.121094 C 149.632812 117.648438 148.886719 117.253906 148.101562 116.929688 C 147.316406 116.605469 146.507812 116.359375 145.675781 116.195312 C 144.84375 116.027344 144 115.945312 143.152344 115.945312 C 142.300781 115.945312 141.457031 116.03125 140.625 116.195312 C 139.792969 116.359375 138.980469 116.605469 138.195312 116.929688 C 137.410156 117.253906 136.667969 117.652344 135.960938 118.121094 C 135.253906 118.59375 134.597656 119.128906 134 119.726562 C 133.398438 120.324219 132.859375 120.976562 132.390625 121.683594 C 131.917969 122.386719 131.519531 123.128906 131.195312 123.914062 C 130.867188 124.695312 130.625 125.503906 130.457031 126.332031 C 130.292969 127.164062 130.210938 128.003906 130.210938 128.851562 C 130.210938 129.695312 130.296875 130.535156 130.464844 131.363281 C 130.628906 132.191406 130.875 133 131.203125 133.78125 C 131.527344 134.5625 131.925781 135.304688 132.398438 136.007812 C 132.871094 136.710938 133.40625 137.359375 134.007812 137.957031 C 134.605469 138.558594 135.261719 139.089844 135.964844 139.5625 C 136.671875 140.03125 137.414062 140.429688 138.199219 140.753906 C 138.984375 141.078125 139.792969 141.324219 140.625 141.492188 C 141.457031 141.65625 142.296875 141.742188 143.144531 141.742188 Z M 143.144531 141.742188 " fill-opacity="0.7765" fill-rule="evenodd"></path><path fill="#00b9f1" d="M 170.246094 159.695312 C 171.023438 159.699219 171.789062 159.625 172.550781 159.476562 C 173.3125 159.328125 174.050781 159.105469 174.769531 158.8125 C 175.484375 158.519531 176.167969 158.160156 176.8125 157.730469 C 177.457031 157.300781 178.054688 156.816406 178.605469 156.269531 C 179.15625 155.726562 179.644531 155.132812 180.078125 154.492188 C 180.511719 153.847656 180.875 153.171875 181.175781 152.457031 C 181.472656 151.746094 181.699219 151.007812 181.851562 150.25 C 182.003906 149.492188 182.082031 148.726562 182.082031 147.953125 C 182.082031 147.183594 182.007812 146.417969 181.859375 145.65625 C 181.710938 144.898438 181.488281 144.164062 181.191406 143.449219 C 180.894531 142.734375 180.53125 142.054688 180.101562 141.410156 C 179.671875 140.769531 179.183594 140.171875 178.636719 139.625 C 178.089844 139.078125 177.492188 138.589844 176.851562 138.160156 C 176.207031 137.730469 175.523438 137.367188 174.808594 137.070312 C 174.09375 136.773438 173.355469 136.546875 172.59375 136.398438 C 171.835938 136.246094 171.066406 136.167969 170.292969 136.167969 C 169.515625 136.167969 168.746094 136.242188 167.988281 136.390625 C 167.226562 136.542969 166.488281 136.765625 165.769531 137.058594 C 165.054688 137.355469 164.375 137.71875 163.730469 138.148438 C 163.082031 138.574219 162.488281 139.0625 161.9375 139.609375 C 161.390625 140.15625 160.898438 140.75 160.46875 141.394531 C 160.039062 142.035156 159.675781 142.714844 159.378906 143.429688 C 159.082031 144.140625 158.855469 144.878906 158.703125 145.636719 C 158.554688 146.394531 158.476562 147.160156 158.476562 147.933594 C 158.480469 148.703125 158.554688 149.464844 158.707031 150.222656 C 158.859375 150.976562 159.082031 151.710938 159.378906 152.421875 C 159.675781 153.136719 160.039062 153.8125 160.464844 154.453125 C 160.894531 155.09375 161.382812 155.6875 161.929688 156.234375 C 162.476562 156.777344 163.070312 157.265625 163.710938 157.695312 C 164.351562 158.125 165.03125 158.488281 165.742188 158.785156 C 166.457031 159.082031 167.191406 159.308594 167.949219 159.460938 C 168.707031 159.613281 169.472656 159.691406 170.246094 159.695312 Z M 170.246094 159.695312 " fill-opacity="0.7765" fill-rule="evenodd"></path><path fill="#8dc63f" d="M 141.285156 110.355469 C 141.878906 110.355469 142.46875 110.296875 143.054688 110.179688 C 143.636719 110.066406 144.203125 109.894531 144.753906 109.667969 C 145.304688 109.441406 145.828125 109.160156 146.320312 108.832031 C 146.816406 108.503906 147.273438 108.128906 147.695312 107.707031 C 148.117188 107.289062 148.492188 106.832031 148.824219 106.339844 C 149.152344 105.84375 149.433594 105.324219 149.660156 104.777344 C 149.890625 104.226562 150.0625 103.660156 150.175781 103.078125 C 150.292969 102.496094 150.351562 101.910156 150.351562 101.316406 C 150.351562 100.722656 150.292969 100.136719 150.175781 99.550781 C 150.0625 98.96875 149.886719 98.40625 149.660156 97.855469 C 149.433594 97.308594 149.152344 96.789062 148.820312 96.292969 C 148.492188 95.800781 148.113281 95.34375 147.695312 94.925781 C 147.273438 94.503906 146.816406 94.128906 146.320312 93.800781 C 145.824219 93.46875 145.300781 93.191406 144.75 92.964844 C 144.199219 92.738281 143.632812 92.566406 143.050781 92.449219 C 142.464844 92.335938 141.875 92.277344 141.28125 92.277344 C 140.683594 92.277344 140.09375 92.335938 139.511719 92.453125 C 138.925781 92.570312 138.359375 92.742188 137.808594 92.96875 C 137.261719 93.195312 136.738281 93.472656 136.242188 93.804688 C 135.746094 94.132812 135.289062 94.507812 134.871094 94.929688 C 134.449219 95.347656 134.074219 95.804688 133.742188 96.300781 C 133.410156 96.792969 133.132812 97.3125 132.90625 97.863281 C 132.675781 98.410156 132.503906 98.976562 132.390625 99.558594 C 132.273438 100.140625 132.214844 100.726562 132.21875 101.320312 C 132.21875 101.914062 132.277344 102.503906 132.394531 103.082031 C 132.511719 103.664062 132.683594 104.230469 132.910156 104.777344 C 133.140625 105.324219 133.417969 105.84375 133.75 106.339844 C 134.082031 106.832031 134.457031 107.285156 134.878906 107.707031 C 135.296875 108.125 135.757812 108.5 136.25 108.828125 C 136.746094 109.160156 137.269531 109.4375 137.816406 109.664062 C 138.367188 109.890625 138.933594 110.0625 139.515625 110.179688 C 140.101562 110.296875 140.6875 110.355469 141.285156 110.355469 Z M 141.285156 110.355469 " fill-opacity="0.7765" fill-rule="evenodd"></path><path fill="#ffd900" d="M 136.761719 78.859375 C 136.761719 79.375 136.710938 79.882812 136.609375 80.386719 C 136.511719 80.890625 136.363281 81.378906 136.164062 81.855469 C 135.96875 82.328125 135.726562 82.78125 135.4375 83.207031 C 135.152344 83.636719 134.828125 84.03125 134.460938 84.394531 C 134.097656 84.757812 133.699219 85.082031 133.273438 85.367188 C 132.84375 85.652344 132.390625 85.894531 131.914062 86.089844 C 131.4375 86.289062 130.949219 86.4375 130.441406 86.535156 C 129.9375 86.636719 129.425781 86.6875 128.910156 86.6875 C 128.394531 86.6875 127.882812 86.636719 127.378906 86.535156 C 126.875 86.4375 126.382812 86.289062 125.90625 86.089844 C 125.429688 85.894531 124.976562 85.652344 124.546875 85.367188 C 124.121094 85.082031 123.722656 84.757812 123.359375 84.394531 C 122.992188 84.03125 122.667969 83.636719 122.382812 83.207031 C 122.097656 82.78125 121.855469 82.328125 121.65625 81.855469 C 121.460938 81.378906 121.308594 80.890625 121.210938 80.386719 C 121.109375 79.882812 121.058594 79.375 121.058594 78.859375 C 121.058594 78.347656 121.109375 77.835938 121.210938 77.332031 C 121.308594 76.828125 121.460938 76.339844 121.65625 75.867188 C 121.855469 75.390625 122.097656 74.941406 122.382812 74.511719 C 122.667969 74.085938 122.992188 73.691406 123.359375 73.328125 C 123.722656 72.964844 124.121094 72.636719 124.546875 72.351562 C 124.976562 72.066406 125.429688 71.828125 125.90625 71.628906 C 126.382812 71.433594 126.875 71.285156 127.378906 71.183594 C 127.882812 71.085938 128.394531 71.035156 128.910156 71.035156 C 129.425781 71.035156 129.9375 71.085938 130.441406 71.183594 C 130.949219 71.285156 131.4375 71.433594 131.914062 71.628906 C 132.390625 71.828125 132.84375 72.066406 133.273438 72.351562 C 133.699219 72.636719 134.097656 72.964844 134.460938 73.328125 C 134.828125 73.691406 135.152344 74.085938 135.4375 74.511719 C 135.726562 74.941406 135.96875 75.390625 136.164062 75.867188 C 136.363281 76.339844 136.511719 76.828125 136.609375 77.332031 C 136.710938 77.835938 136.761719 78.347656 136.761719 78.859375 Z M 136.761719 78.859375 " fill-opacity="0.7765" fill-rule="nonzero"></path><path fill="#009444" d="M 145.5 64.519531 C 145.980469 64.519531 146.457031 64.476562 146.929688 64.382812 C 147.402344 64.289062 147.859375 64.148438 148.304688 63.964844 C 148.75 63.78125 149.171875 63.558594 149.574219 63.292969 C 149.972656 63.027344 150.34375 62.722656 150.683594 62.382812 C 151.023438 62.042969 151.328125 61.675781 151.597656 61.277344 C 151.863281 60.878906 152.089844 60.457031 152.273438 60.015625 C 152.460938 59.570312 152.597656 59.113281 152.691406 58.644531 C 152.785156 58.171875 152.835938 57.699219 152.835938 57.21875 C 152.835938 56.738281 152.789062 56.261719 152.695312 55.792969 C 152.601562 55.320312 152.460938 54.863281 152.277344 54.421875 C 152.09375 53.976562 151.867188 53.554688 151.601562 53.15625 C 151.332031 52.757812 151.03125 52.390625 150.6875 52.050781 C 150.347656 51.710938 149.980469 51.40625 149.578125 51.140625 C 149.179688 50.875 148.757812 50.648438 148.3125 50.464844 C 147.867188 50.28125 147.410156 50.140625 146.9375 50.046875 C 146.464844 49.953125 145.988281 49.90625 145.507812 49.90625 C 145.023438 49.90625 144.546875 49.953125 144.074219 50.046875 C 143.605469 50.140625 143.144531 50.28125 142.699219 50.464844 C 142.253906 50.648438 141.832031 50.871094 141.433594 51.136719 C 141.03125 51.40625 140.660156 51.707031 140.320312 52.046875 C 139.980469 52.386719 139.675781 52.753906 139.410156 53.152344 C 139.140625 53.554688 138.917969 53.972656 138.730469 54.417969 C 138.546875 54.859375 138.410156 55.316406 138.316406 55.789062 C 138.222656 56.257812 138.175781 56.734375 138.175781 57.214844 C 138.175781 57.695312 138.222656 58.167969 138.316406 58.636719 C 138.410156 59.109375 138.550781 59.566406 138.734375 60.007812 C 138.917969 60.449219 139.144531 60.871094 139.410156 61.269531 C 139.679688 61.667969 139.980469 62.035156 140.320312 62.375 C 140.664062 62.714844 141.03125 63.015625 141.429688 63.285156 C 141.832031 63.550781 142.253906 63.777344 142.695312 63.960938 C 143.140625 64.144531 143.597656 64.28125 144.070312 64.378906 C 144.542969 64.472656 145.019531 64.519531 145.5 64.519531 Z M 145.5 64.519531 " fill-opacity="0.7765" fill-rule="evenodd"></path><path fill="#56ba48" d="M 147.988281 82.730469 C 148.304688 82.730469 148.621094 82.699219 148.929688 82.640625 C 149.242188 82.578125 149.546875 82.484375 149.839844 82.363281 C 150.132812 82.242188 150.414062 82.09375 150.675781 81.917969 C 150.941406 81.742188 151.1875 81.542969 151.410156 81.316406 C 151.636719 81.09375 151.835938 80.851562 152.011719 80.585938 C 152.1875 80.324219 152.339844 80.042969 152.460938 79.753906 C 152.582031 79.460938 152.671875 79.15625 152.734375 78.847656 C 152.796875 78.535156 152.828125 78.222656 152.828125 77.90625 C 152.828125 77.589844 152.796875 77.273438 152.734375 76.964844 C 152.671875 76.652344 152.582031 76.351562 152.460938 76.058594 C 152.339844 75.765625 152.1875 75.488281 152.011719 75.222656 C 151.835938 74.960938 151.636719 74.714844 151.410156 74.492188 C 151.1875 74.269531 150.941406 74.066406 150.675781 73.890625 C 150.414062 73.714844 150.132812 73.566406 149.839844 73.445312 C 149.546875 73.324219 149.242188 73.234375 148.929688 73.171875 C 148.621094 73.109375 148.304688 73.078125 147.988281 73.078125 C 147.667969 73.078125 147.355469 73.109375 147.042969 73.171875 C 146.730469 73.234375 146.425781 73.324219 146.132812 73.445312 C 145.839844 73.566406 145.5625 73.714844 145.296875 73.890625 C 145.03125 74.066406 144.789062 74.269531 144.5625 74.492188 C 144.339844 74.714844 144.136719 74.960938 143.960938 75.222656 C 143.785156 75.488281 143.636719 75.765625 143.511719 76.058594 C 143.390625 76.351562 143.300781 76.652344 143.238281 76.964844 C 143.175781 77.273438 143.144531 77.589844 143.144531 77.90625 C 143.144531 78.222656 143.175781 78.535156 143.238281 78.847656 C 143.300781 79.15625 143.394531 79.457031 143.515625 79.75 C 143.636719 80.042969 143.789062 80.320312 143.964844 80.582031 C 144.140625 80.847656 144.339844 81.089844 144.566406 81.316406 C 144.789062 81.539062 145.035156 81.738281 145.300781 81.914062 C 145.5625 82.089844 145.84375 82.238281 146.136719 82.359375 C 146.429688 82.484375 146.730469 82.574219 147.042969 82.636719 C 147.355469 82.699219 147.667969 82.730469 147.988281 82.730469 Z M 147.988281 82.730469 " fill-opacity="0.7765" fill-rule="evenodd"></path><g clip-path="url(#id4)"><path fill="#fbad17" d="M 158.085938 52.042969 C 158.402344 52.042969 158.71875 52.011719 159.03125 51.949219 C 159.339844 51.886719 159.644531 51.796875 159.9375 51.675781 C 160.230469 51.550781 160.511719 51.402344 160.773438 51.226562 C 161.039062 51.050781 161.285156 50.851562 161.507812 50.628906 C 161.734375 50.402344 161.933594 50.160156 162.109375 49.894531 C 162.289062 49.632812 162.4375 49.355469 162.558594 49.0625 C 162.679688 48.769531 162.773438 48.46875 162.835938 48.15625 C 162.894531 47.847656 162.925781 47.53125 162.925781 47.214844 C 162.925781 46.898438 162.894531 46.585938 162.835938 46.273438 C 162.773438 45.960938 162.679688 45.660156 162.558594 45.367188 C 162.4375 45.074219 162.289062 44.796875 162.109375 44.535156 C 161.933594 44.269531 161.734375 44.027344 161.507812 43.800781 C 161.285156 43.578125 161.039062 43.378906 160.773438 43.203125 C 160.511719 43.027344 160.230469 42.878906 159.9375 42.757812 C 159.644531 42.632812 159.339844 42.542969 159.03125 42.480469 C 158.71875 42.417969 158.402344 42.386719 158.085938 42.386719 C 157.765625 42.386719 157.453125 42.417969 157.140625 42.480469 C 156.828125 42.542969 156.527344 42.632812 156.230469 42.757812 C 155.9375 42.878906 155.660156 43.027344 155.394531 43.203125 C 155.132812 43.378906 154.886719 43.578125 154.660156 43.800781 C 154.4375 44.027344 154.234375 44.269531 154.058594 44.535156 C 153.882812 44.796875 153.734375 45.074219 153.613281 45.367188 C 153.492188 45.660156 153.398438 45.960938 153.335938 46.273438 C 153.273438 46.585938 153.242188 46.898438 153.242188 47.214844 C 153.246094 47.53125 153.277344 47.84375 153.339844 48.15625 C 153.402344 48.464844 153.492188 48.769531 153.613281 49.058594 C 153.738281 49.351562 153.886719 49.628906 154.0625 49.894531 C 154.238281 50.15625 154.441406 50.402344 154.664062 50.625 C 154.890625 50.847656 155.132812 51.046875 155.398438 51.222656 C 155.660156 51.402344 155.941406 51.550781 156.234375 51.671875 C 156.527344 51.792969 156.828125 51.882812 157.140625 51.945312 C 157.453125 52.007812 157.769531 52.039062 158.085938 52.042969 Z M 158.085938 52.042969 " fill-opacity="0.7765" fill-rule="evenodd"></path></g><path fill="#f15c22" d="M 128.34375 62.800781 C 128.828125 62.796875 129.296875 62.703125 129.746094 62.515625 C 130.191406 62.328125 130.585938 62.0625 130.929688 61.71875 C 131.269531 61.375 131.535156 60.980469 131.71875 60.535156 C 131.902344 60.085938 131.992188 59.621094 131.992188 59.136719 C 131.992188 58.652344 131.898438 58.1875 131.710938 57.738281 C 131.523438 57.292969 131.257812 56.898438 130.914062 56.558594 C 130.570312 56.214844 130.171875 55.953125 129.722656 55.769531 C 129.273438 55.585938 128.808594 55.492188 128.320312 55.492188 C 127.835938 55.496094 127.371094 55.585938 126.921875 55.773438 C 126.472656 55.960938 126.078125 56.222656 125.734375 56.566406 C 125.390625 56.90625 125.125 57.304688 124.941406 57.75 C 124.753906 58.199219 124.664062 58.664062 124.664062 59.148438 C 124.664062 59.632812 124.757812 60.097656 124.945312 60.546875 C 125.132812 60.996094 125.398438 61.390625 125.746094 61.734375 C 126.089844 62.074219 126.488281 62.339844 126.9375 62.523438 C 127.390625 62.707031 127.855469 62.800781 128.34375 62.800781 Z M 128.34375 62.800781 " fill-opacity="0.7765" fill-rule="evenodd"></path><path fill="#fbad17" d="M 215.464844 100.070312 C 215.464844 101.070312 215.417969 102.066406 215.316406 103.0625 C 215.21875 104.058594 215.074219 105.046875 214.878906 106.027344 C 214.679688 107.007812 214.4375 107.976562 214.148438 108.933594 C 213.855469 109.890625 213.519531 110.828125 213.132812 111.753906 C 212.75 112.675781 212.320312 113.578125 211.847656 114.460938 C 211.375 115.34375 210.863281 116.199219 210.304688 117.03125 C 209.746094 117.863281 209.148438 118.664062 208.515625 119.4375 C 207.878906 120.210938 207.203125 120.949219 206.496094 121.65625 C 205.785156 122.363281 205.042969 123.035156 204.269531 123.667969 C 203.492188 124.304688 202.6875 124.898438 201.855469 125.453125 C 201.019531 126.007812 200.160156 126.523438 199.277344 126.992188 C 198.390625 127.464844 197.484375 127.890625 196.558594 128.273438 C 195.632812 128.65625 194.691406 128.992188 193.730469 129.285156 C 192.769531 129.574219 191.796875 129.816406 190.8125 130.011719 C 189.832031 130.207031 188.839844 130.355469 187.839844 130.453125 C 186.84375 130.550781 185.84375 130.597656 184.839844 130.597656 C 183.835938 130.597656 182.835938 130.550781 181.835938 130.453125 C 180.839844 130.355469 179.847656 130.207031 178.863281 130.011719 C 177.878906 129.816406 176.910156 129.574219 175.949219 129.285156 C 174.988281 128.992188 174.046875 128.65625 173.117188 128.273438 C 172.191406 127.890625 171.285156 127.464844 170.402344 126.992188 C 169.515625 126.523438 168.65625 126.007812 167.824219 125.453125 C 166.988281 124.898438 166.183594 124.304688 165.410156 123.667969 C 164.632812 123.035156 163.890625 122.363281 163.183594 121.65625 C 162.472656 120.949219 161.800781 120.210938 161.164062 119.4375 C 160.527344 118.664062 159.933594 117.863281 159.375 117.03125 C 158.816406 116.199219 158.300781 115.34375 157.828125 114.460938 C 157.355469 113.578125 156.929688 112.675781 156.542969 111.753906 C 156.160156 110.828125 155.824219 109.890625 155.53125 108.933594 C 155.242188 107.976562 154.996094 107.007812 154.800781 106.027344 C 154.605469 105.046875 154.457031 104.058594 154.359375 103.0625 C 154.261719 102.066406 154.214844 101.070312 154.214844 100.070312 C 154.214844 99.070312 154.261719 98.074219 154.359375 97.078125 C 154.457031 96.082031 154.605469 95.09375 154.800781 94.113281 C 154.996094 93.132812 155.242188 92.164062 155.53125 91.207031 C 155.824219 90.253906 156.160156 89.3125 156.542969 88.386719 C 156.929688 87.464844 157.355469 86.5625 157.828125 85.679688 C 158.300781 84.796875 158.816406 83.941406 159.375 83.109375 C 159.933594 82.277344 160.527344 81.476562 161.164062 80.703125 C 161.800781 79.929688 162.472656 79.191406 163.183594 78.484375 C 163.890625 77.777344 164.632812 77.105469 165.410156 76.472656 C 166.183594 75.839844 166.988281 75.242188 167.824219 74.6875 C 168.660156 74.132812 169.515625 73.617188 170.402344 73.148438 C 171.285156 72.675781 172.191406 72.25 173.117188 71.867188 C 174.046875 71.484375 174.988281 71.148438 175.949219 70.855469 C 176.910156 70.566406 177.878906 70.324219 178.863281 70.128906 C 179.847656 69.933594 180.839844 69.789062 181.835938 69.691406 C 182.835938 69.589844 183.835938 69.542969 184.839844 69.542969 C 185.84375 69.542969 186.84375 69.589844 187.839844 69.691406 C 188.839844 69.789062 189.832031 69.933594 190.8125 70.128906 C 191.796875 70.324219 192.769531 70.566406 193.730469 70.855469 C 194.691406 71.148438 195.632812 71.484375 196.558594 71.867188 C 197.484375 72.25 198.390625 72.675781 199.277344 73.148438 C 200.160156 73.617188 201.019531 74.132812 201.855469 74.6875 C 202.6875 75.242188 203.492188 75.839844 204.269531 76.472656 C 205.042969 77.105469 205.785156 77.777344 206.496094 78.484375 C 207.203125 79.191406 207.878906 79.929688 208.515625 80.703125 C 209.148438 81.476562 209.746094 82.277344 210.304688 83.109375 C 210.863281 83.941406 211.375 84.796875 211.847656 85.679688 C 212.320312 86.5625 212.75 87.464844 213.132812 88.386719 C 213.519531 89.3125 213.855469 90.253906 214.148438 91.207031 C 214.4375 92.164062 214.679688 93.132812 214.878906 94.113281 C 215.074219 95.09375 215.21875 96.082031 215.316406 97.078125 C 215.417969 98.074219 215.464844 99.070312 215.464844 100.070312 Z M 215.464844 100.070312 " fill-opacity="0.7765" fill-rule="nonzero"></path><path fill="#ec008b" d="M 201.757812 53.863281 C 216.433594 56.878906 228.730469 64.207031 235.980469 74.75 C 235.921875 75.195312 235.84375 75.640625 235.753906 76.082031 C 235.664062 76.523438 235.5625 76.960938 235.445312 77.394531 C 235.328125 77.832031 235.195312 78.261719 235.050781 78.691406 C 234.910156 79.117188 234.75 79.539062 234.582031 79.957031 C 234.410156 80.375 234.226562 80.785156 234.03125 81.191406 C 233.835938 81.597656 233.628906 82 233.40625 82.390625 C 233.1875 82.785156 232.953125 83.171875 232.710938 83.550781 C 232.464844 83.929688 232.210938 84.300781 231.941406 84.664062 C 231.671875 85.027344 231.394531 85.382812 231.105469 85.726562 C 230.816406 86.074219 230.515625 86.410156 230.203125 86.738281 C 229.894531 87.0625 229.574219 87.382812 229.242188 87.691406 C 228.914062 87.996094 228.574219 88.292969 228.222656 88.582031 C 227.875 88.867188 227.519531 89.144531 227.152344 89.40625 C 226.785156 89.671875 226.414062 89.925781 226.03125 90.167969 C 225.648438 90.40625 225.261719 90.636719 224.863281 90.855469 C 224.46875 91.074219 224.066406 91.277344 223.65625 91.46875 C 223.25 91.664062 222.835938 91.84375 222.414062 92.007812 C 221.996094 92.175781 221.570312 92.332031 221.140625 92.472656 C 220.710938 92.613281 220.277344 92.738281 219.839844 92.855469 C 219.402344 92.96875 218.960938 93.066406 218.519531 93.15625 C 218.074219 93.242188 217.628906 93.316406 217.179688 93.375 C 216.734375 93.433594 216.285156 93.480469 215.832031 93.511719 C 215.382812 93.542969 214.929688 93.558594 214.476562 93.5625 C 214.027344 93.566406 213.574219 93.554688 213.121094 93.53125 C 212.671875 93.507812 212.222656 93.46875 211.773438 93.417969 C 211.324219 93.367188 210.875 93.300781 210.429688 93.21875 C 209.984375 93.140625 209.542969 93.046875 209.105469 92.941406 C 208.664062 92.832031 208.230469 92.710938 207.796875 92.578125 C 207.367188 92.445312 206.941406 92.296875 206.515625 92.136719 C 206.09375 91.976562 205.675781 91.804688 205.265625 91.617188 C 204.855469 91.433594 204.449219 91.234375 204.050781 91.023438 C 203.648438 90.8125 203.257812 90.589844 202.871094 90.351562 C 202.484375 90.117188 202.109375 89.871094 201.738281 89.613281 C 201.367188 89.351562 201.003906 89.082031 200.652344 88.800781 C 200.300781 88.523438 199.953125 88.230469 199.621094 87.929688 C 199.285156 87.625 198.957031 87.3125 198.640625 86.992188 C 198.328125 86.667969 198.019531 86.335938 197.726562 85.996094 C 197.429688 85.652344 197.144531 85.304688 196.871094 84.945312 C 196.597656 84.585938 196.335938 84.21875 196.085938 83.84375 C 195.835938 83.46875 195.597656 83.085938 195.371094 82.699219 C 195.144531 82.308594 194.929688 81.910156 194.726562 81.507812 C 194.523438 81.105469 194.332031 80.695312 194.15625 80.28125 C 193.980469 79.867188 193.816406 79.449219 193.664062 79.023438 C 193.515625 78.597656 193.378906 78.167969 193.253906 77.734375 C 193.128906 77.300781 193.019531 76.867188 192.921875 76.425781 C 192.824219 75.984375 192.742188 75.542969 192.671875 75.097656 C 192.601562 74.652344 192.546875 74.203125 192.503906 73.757812 C 192.464844 73.308594 192.433594 72.859375 192.421875 72.40625 C 192.40625 71.957031 192.410156 71.507812 192.421875 71.054688 C 192.4375 70.605469 192.464844 70.15625 192.507812 69.707031 C 192.550781 69.257812 192.605469 68.8125 192.675781 68.367188 C 192.746094 67.921875 192.828125 67.480469 192.925781 67.039062 C 193.023438 66.597656 193.136719 66.164062 193.261719 65.730469 C 193.382812 65.296875 193.523438 64.867188 193.671875 64.441406 C 193.824219 64.019531 193.988281 63.597656 194.167969 63.183594 C 194.34375 62.769531 194.535156 62.359375 194.738281 61.957031 C 194.941406 61.554688 195.15625 61.160156 195.382812 60.769531 C 195.609375 60.378906 195.847656 60 196.101562 59.625 C 196.351562 59.25 196.613281 58.882812 196.886719 58.523438 C 197.160156 58.164062 197.445312 57.816406 197.742188 57.472656 C 198.039062 57.132812 198.34375 56.800781 198.660156 56.480469 C 198.976562 56.15625 199.300781 55.847656 199.636719 55.542969 C 199.972656 55.242188 200.316406 54.953125 200.671875 54.671875 C 201.027344 54.390625 201.386719 54.121094 201.757812 53.863281 Z M 201.757812 53.863281 " fill-opacity="0.7765" fill-rule="evenodd"></path><path fill="#56ba48" d="M 174.527344 86.691406 C 175.128906 86.691406 175.726562 86.664062 176.324219 86.605469 C 176.925781 86.546875 177.519531 86.457031 178.105469 86.339844 C 178.695312 86.222656 179.277344 86.078125 179.855469 85.90625 C 180.429688 85.730469 180.992188 85.53125 181.550781 85.300781 C 182.105469 85.070312 182.648438 84.816406 183.175781 84.535156 C 183.707031 84.25 184.222656 83.945312 184.722656 83.613281 C 185.222656 83.277344 185.703125 82.921875 186.167969 82.542969 C 186.632812 82.164062 187.078125 81.761719 187.5 81.335938 C 187.925781 80.914062 188.328125 80.472656 188.710938 80.007812 C 189.09375 79.546875 189.449219 79.066406 189.785156 78.566406 C 190.117188 78.070312 190.425781 77.554688 190.710938 77.027344 C 190.992188 76.5 191.25 75.960938 191.480469 75.40625 C 191.707031 74.851562 191.910156 74.289062 192.085938 73.714844 C 192.261719 73.144531 192.40625 72.5625 192.523438 71.976562 C 192.640625 71.386719 192.726562 70.796875 192.789062 70.199219 C 192.847656 69.605469 192.875 69.007812 192.875 68.410156 C 192.875 67.808594 192.847656 67.210938 192.789062 66.617188 C 192.730469 66.019531 192.640625 65.429688 192.523438 64.84375 C 192.40625 64.253906 192.261719 63.675781 192.085938 63.101562 C 191.910156 62.527344 191.710938 61.964844 191.480469 61.410156 C 191.25 60.859375 190.992188 60.316406 190.710938 59.789062 C 190.425781 59.261719 190.117188 58.75 189.785156 58.25 C 189.453125 57.753906 189.09375 57.273438 188.710938 56.808594 C 188.332031 56.347656 187.929688 55.902344 187.503906 55.480469 C 187.078125 55.058594 186.632812 54.65625 186.171875 54.277344 C 185.707031 53.894531 185.222656 53.539062 184.722656 53.207031 C 184.226562 52.875 183.710938 52.566406 183.179688 52.285156 C 182.652344 52.003906 182.109375 51.746094 181.554688 51.515625 C 181 51.289062 180.433594 51.085938 179.859375 50.914062 C 179.285156 50.738281 178.703125 50.59375 178.113281 50.476562 C 177.523438 50.359375 176.929688 50.273438 176.332031 50.214844 C 175.734375 50.15625 175.132812 50.125 174.535156 50.125 C 173.933594 50.125 173.332031 50.15625 172.734375 50.214844 C 172.136719 50.273438 171.542969 50.359375 170.957031 50.476562 C 170.367188 50.59375 169.785156 50.738281 169.210938 50.914062 C 168.632812 51.085938 168.070312 51.289062 167.515625 51.515625 C 166.960938 51.746094 166.417969 52 165.886719 52.285156 C 165.355469 52.566406 164.84375 52.875 164.34375 53.207031 C 163.84375 53.539062 163.363281 53.894531 162.898438 54.273438 C 162.433594 54.65625 161.988281 55.054688 161.5625 55.480469 C 161.140625 55.902344 160.734375 56.347656 160.355469 56.808594 C 159.972656 57.273438 159.617188 57.753906 159.28125 58.25 C 158.949219 58.75 158.640625 59.261719 158.355469 59.789062 C 158.074219 60.316406 157.816406 60.859375 157.585938 61.410156 C 157.359375 61.964844 157.15625 62.527344 156.980469 63.101562 C 156.804688 63.675781 156.660156 64.253906 156.542969 64.839844 C 156.425781 65.429688 156.339844 66.019531 156.28125 66.617188 C 156.21875 67.210938 156.191406 67.808594 156.191406 68.410156 C 156.191406 69.007812 156.222656 69.605469 156.28125 70.199219 C 156.34375 70.792969 156.429688 71.386719 156.550781 71.972656 C 156.667969 72.558594 156.8125 73.140625 156.988281 73.710938 C 157.164062 74.285156 157.367188 74.847656 157.597656 75.398438 C 157.824219 75.953125 158.082031 76.492188 158.367188 77.019531 C 158.648438 77.546875 158.957031 78.058594 159.292969 78.558594 C 159.625 79.054688 159.984375 79.535156 160.363281 79.996094 C 160.746094 80.460938 161.148438 80.902344 161.570312 81.324219 C 161.996094 81.75 162.441406 82.148438 162.902344 82.53125 C 163.367188 82.910156 163.847656 83.265625 164.347656 83.597656 C 164.847656 83.929688 165.359375 84.238281 165.890625 84.519531 C 166.417969 84.804688 166.960938 85.058594 167.515625 85.289062 C 168.070312 85.519531 168.632812 85.722656 169.207031 85.894531 C 169.78125 86.070312 170.363281 86.214844 170.953125 86.335938 C 171.542969 86.453125 172.132812 86.539062 172.730469 86.601562 C 173.328125 86.660156 173.925781 86.691406 174.527344 86.691406 Z M 174.527344 86.691406 " fill-opacity="0.7765" fill-rule="evenodd"></path><g fill="#cb6ce6" fill-opacity="1"><g transform="translate(67.450583, 245.225609)"><g><path d="M 18.40625 0.53125 C 15.257812 0.53125 12.414062 -0.148438 9.875 -1.515625 C 7.34375 -2.878906 5.347656 -4.769531 3.890625 -7.1875 C 2.441406 -9.613281 1.71875 -12.351562 1.71875 -15.40625 C 1.71875 -18.457031 2.441406 -21.191406 3.890625 -23.609375 C 5.347656 -26.035156 7.34375 -27.929688 9.875 -29.296875 C 12.414062 -30.660156 15.269531 -31.34375 18.4375 -31.34375 C 21.113281 -31.34375 23.53125 -30.867188 25.6875 -29.921875 C 27.84375 -28.984375 29.65625 -27.632812 31.125 -25.875 L 26.546875 -21.65625 C 24.460938 -24.0625 21.878906 -25.265625 18.796875 -25.265625 C 16.890625 -25.265625 15.1875 -24.84375 13.6875 -24 C 12.1875 -23.164062 11.019531 -22 10.1875 -20.5 C 9.351562 -19.007812 8.9375 -17.3125 8.9375 -15.40625 C 8.9375 -13.5 9.351562 -11.796875 10.1875 -10.296875 C 11.019531 -8.804688 12.1875 -7.640625 13.6875 -6.796875 C 15.1875 -5.960938 16.890625 -5.546875 18.796875 -5.546875 C 21.878906 -5.546875 24.460938 -6.765625 26.546875 -9.203125 L 31.125 -4.96875 C 29.65625 -3.175781 27.832031 -1.8125 25.65625 -0.875 C 23.488281 0.0625 21.070312 0.53125 18.40625 0.53125 Z M 18.40625 0.53125 "></path></g></g></g><g fill="#cb6ce6" fill-opacity="1"><g transform="translate(101.959061, 245.225609)"><g><path d="M 14.4375 0.359375 C 11.945312 0.359375 9.707031 -0.160156 7.71875 -1.203125 C 5.738281 -2.242188 4.191406 -3.6875 3.078125 -5.53125 C 1.960938 -7.382812 1.40625 -9.488281 1.40625 -11.84375 C 1.40625 -14.1875 1.960938 -16.28125 3.078125 -18.125 C 4.191406 -19.976562 5.738281 -21.425781 7.71875 -22.46875 C 9.707031 -23.507812 11.945312 -24.03125 14.4375 -24.03125 C 16.925781 -24.03125 19.15625 -23.507812 21.125 -22.46875 C 23.09375 -21.425781 24.632812 -19.976562 25.75 -18.125 C 26.863281 -16.28125 27.421875 -14.1875 27.421875 -11.84375 C 27.421875 -9.488281 26.863281 -7.382812 25.75 -5.53125 C 24.632812 -3.6875 23.09375 -2.242188 21.125 -1.203125 C 19.15625 -0.160156 16.925781 0.359375 14.4375 0.359375 Z M 14.4375 -5.28125 C 16.195312 -5.28125 17.640625 -5.875 18.765625 -7.0625 C 19.898438 -8.25 20.46875 -9.84375 20.46875 -11.84375 C 20.46875 -13.832031 19.898438 -15.421875 18.765625 -16.609375 C 17.640625 -17.804688 16.195312 -18.40625 14.4375 -18.40625 C 12.675781 -18.40625 11.222656 -17.804688 10.078125 -16.609375 C 8.929688 -15.421875 8.359375 -13.832031 8.359375 -11.84375 C 8.359375 -9.84375 8.929688 -8.25 10.078125 -7.0625 C 11.222656 -5.875 12.675781 -5.28125 14.4375 -5.28125 Z M 14.4375 -5.28125 "></path></g></g></g><g fill="#cb6ce6" fill-opacity="1"><g transform="translate(133.034322, 245.225609)"><g><path d="M 27.296875 -32.65625 L 27.296875 0 L 20.734375 0 L 20.734375 -2.734375 C 19.023438 -0.671875 16.5625 0.359375 13.34375 0.359375 C 11.101562 0.359375 9.082031 -0.140625 7.28125 -1.140625 C 5.476562 -2.140625 4.0625 -3.5625 3.03125 -5.40625 C 2.007812 -7.257812 1.5 -9.40625 1.5 -11.84375 C 1.5 -14.28125 2.007812 -16.421875 3.03125 -18.265625 C 4.0625 -20.117188 5.476562 -21.539062 7.28125 -22.53125 C 9.082031 -23.53125 11.101562 -24.03125 13.34375 -24.03125 C 16.363281 -24.03125 18.722656 -23.078125 20.421875 -21.171875 L 20.421875 -32.65625 Z M 14.53125 -5.28125 C 16.257812 -5.28125 17.695312 -5.875 18.84375 -7.0625 C 19.988281 -8.25 20.5625 -9.84375 20.5625 -11.84375 C 20.5625 -13.832031 19.988281 -15.421875 18.84375 -16.609375 C 17.695312 -17.804688 16.257812 -18.40625 14.53125 -18.40625 C 12.769531 -18.40625 11.316406 -17.804688 10.171875 -16.609375 C 9.023438 -15.421875 8.453125 -13.832031 8.453125 -11.84375 C 8.453125 -9.84375 9.023438 -8.25 10.171875 -7.0625 C 11.316406 -5.875 12.769531 -5.28125 14.53125 -5.28125 Z M 14.53125 -5.28125 "></path></g></g></g><g fill="#cb6ce6" fill-opacity="1"><g transform="translate(165.738159, 245.225609)"><g><path d="M 3.171875 -23.6875 L 10.03125 -23.6875 L 10.03125 0 L 3.171875 0 Z M 6.609375 -26.984375 C 5.347656 -26.984375 4.320312 -27.347656 3.53125 -28.078125 C 2.738281 -28.816406 2.34375 -29.726562 2.34375 -30.8125 C 2.34375 -31.894531 2.738281 -32.800781 3.53125 -33.53125 C 4.320312 -34.269531 5.347656 -34.640625 6.609375 -34.640625 C 7.867188 -34.640625 8.894531 -34.285156 9.6875 -33.578125 C 10.476562 -32.878906 10.875 -32 10.875 -30.9375 C 10.875 -29.789062 10.476562 -28.84375 9.6875 -28.09375 C 8.894531 -27.351562 7.867188 -26.984375 6.609375 -26.984375 Z M 6.609375 -26.984375 "></path></g></g></g><g fill="#cb6ce6" fill-opacity="1"><g transform="translate(181.231901, 245.225609)"><g><path d="M 17.5625 -24.03125 C 20.5 -24.03125 22.867188 -23.148438 24.671875 -21.390625 C 26.472656 -19.628906 27.375 -17.019531 27.375 -13.5625 L 27.375 0 L 20.515625 0 L 20.515625 -12.5 C 20.515625 -14.375 20.101562 -15.773438 19.28125 -16.703125 C 18.457031 -17.628906 17.269531 -18.09375 15.71875 -18.09375 C 13.976562 -18.09375 12.59375 -17.554688 11.5625 -16.484375 C 10.539062 -15.410156 10.03125 -13.816406 10.03125 -11.703125 L 10.03125 0 L 3.171875 0 L 3.171875 -23.6875 L 9.734375 -23.6875 L 9.734375 -20.90625 C 10.640625 -21.90625 11.765625 -22.675781 13.109375 -23.21875 C 14.460938 -23.757812 15.945312 -24.03125 17.5625 -24.03125 Z M 17.5625 -24.03125 "></path></g></g></g><g fill="#cb6ce6" fill-opacity="1"><g transform="translate(213.891723, 245.225609)"><g><path d="M 27.59375 -23.6875 L 27.59375 -3.96875 C 27.59375 0.375 26.460938 3.601562 24.203125 5.71875 C 21.941406 7.832031 18.644531 8.890625 14.3125 8.890625 C 12.019531 8.890625 9.84375 8.609375 7.78125 8.046875 C 5.726562 7.492188 4.03125 6.691406 2.6875 5.640625 L 5.40625 0.703125 C 6.40625 1.523438 7.664062 2.175781 9.1875 2.65625 C 10.71875 3.144531 12.25 3.390625 13.78125 3.390625 C 16.15625 3.390625 17.90625 2.851562 19.03125 1.78125 C 20.164062 0.707031 20.734375 -0.910156 20.734375 -3.078125 L 20.734375 -4.09375 C 18.941406 -2.125 16.445312 -1.140625 13.25 -1.140625 C 11.070312 -1.140625 9.082031 -1.613281 7.28125 -2.5625 C 5.476562 -3.519531 4.046875 -4.863281 2.984375 -6.59375 C 1.929688 -8.332031 1.40625 -10.332031 1.40625 -12.59375 C 1.40625 -14.851562 1.929688 -16.847656 2.984375 -18.578125 C 4.046875 -20.304688 5.476562 -21.644531 7.28125 -22.59375 C 9.082031 -23.550781 11.070312 -24.03125 13.25 -24.03125 C 16.6875 -24.03125 19.296875 -22.898438 21.078125 -20.640625 L 21.078125 -23.6875 Z M 14.609375 -6.78125 C 16.429688 -6.78125 17.921875 -7.3125 19.078125 -8.375 C 20.234375 -9.445312 20.8125 -10.851562 20.8125 -12.59375 C 20.8125 -14.320312 20.234375 -15.722656 19.078125 -16.796875 C 17.921875 -17.867188 16.429688 -18.40625 14.609375 -18.40625 C 12.796875 -18.40625 11.300781 -17.867188 10.125 -16.796875 C 8.945312 -15.722656 8.359375 -14.320312 8.359375 -12.59375 C 8.359375 -10.851562 8.945312 -9.445312 10.125 -8.375 C 11.300781 -7.3125 12.796875 -6.78125 14.609375 -6.78125 Z M 14.609375 -6.78125 "></path></g></g></g><g fill="#cb6ce6" fill-opacity="1"><g transform="translate(246.947682, 245.225609)"><g></g></g></g><g fill="#cb6ce6" fill-opacity="1"><g transform="translate(261.649162, 245.225609)"><g><path d="M 3.171875 -23.6875 L 10.03125 -23.6875 L 10.03125 0 L 3.171875 0 Z M 6.609375 -26.984375 C 5.347656 -26.984375 4.320312 -27.347656 3.53125 -28.078125 C 2.738281 -28.816406 2.34375 -29.726562 2.34375 -30.8125 C 2.34375 -31.894531 2.738281 -32.800781 3.53125 -33.53125 C 4.320312 -34.269531 5.347656 -34.640625 6.609375 -34.640625 C 7.867188 -34.640625 8.894531 -34.285156 9.6875 -33.578125 C 10.476562 -32.878906 10.875 -32 10.875 -30.9375 C 10.875 -29.789062 10.476562 -28.84375 9.6875 -28.09375 C 8.894531 -27.351562 7.867188 -26.984375 6.609375 -26.984375 Z M 6.609375 -26.984375 "></path></g></g></g><g fill="#cb6ce6" fill-opacity="1"><g transform="translate(277.142905, 245.225609)"><g><path d="M 17.5625 -24.03125 C 20.5 -24.03125 22.867188 -23.148438 24.671875 -21.390625 C 26.472656 -19.628906 27.375 -17.019531 27.375 -13.5625 L 27.375 0 L 20.515625 0 L 20.515625 -12.5 C 20.515625 -14.375 20.101562 -15.773438 19.28125 -16.703125 C 18.457031 -17.628906 17.269531 -18.09375 15.71875 -18.09375 C 13.976562 -18.09375 12.59375 -17.554688 11.5625 -16.484375 C 10.539062 -15.410156 10.03125 -13.816406 10.03125 -11.703125 L 10.03125 0 L 3.171875 0 L 3.171875 -23.6875 L 9.734375 -23.6875 L 9.734375 -20.90625 C 10.640625 -21.90625 11.765625 -22.675781 13.109375 -23.21875 C 14.460938 -23.757812 15.945312 -24.03125 17.5625 -24.03125 Z M 17.5625 -24.03125 "></path></g></g></g><g fill="#4285f4" fill-opacity="1"><g transform="translate(105.712299, 306.725605)"><g><path d="M 18.40625 0.53125 C 15.257812 0.53125 12.414062 -0.148438 9.875 -1.515625 C 7.34375 -2.878906 5.347656 -4.769531 3.890625 -7.1875 C 2.441406 -9.613281 1.71875 -12.351562 1.71875 -15.40625 C 1.71875 -18.457031 2.441406 -21.191406 3.890625 -23.609375 C 5.347656 -26.035156 7.34375 -27.929688 9.875 -29.296875 C 12.414062 -30.660156 15.269531 -31.34375 18.4375 -31.34375 C 21.113281 -31.34375 23.53125 -30.867188 25.6875 -29.921875 C 27.84375 -28.984375 29.65625 -27.632812 31.125 -25.875 L 26.546875 -21.65625 C 24.460938 -24.0625 21.878906 -25.265625 18.796875 -25.265625 C 16.890625 -25.265625 15.1875 -24.84375 13.6875 -24 C 12.1875 -23.164062 11.019531 -22 10.1875 -20.5 C 9.351562 -19.007812 8.9375 -17.3125 8.9375 -15.40625 C 8.9375 -13.5 9.351562 -11.796875 10.1875 -10.296875 C 11.019531 -8.804688 12.1875 -7.640625 13.6875 -6.796875 C 15.1875 -5.960938 16.890625 -5.546875 18.796875 -5.546875 C 21.878906 -5.546875 24.460938 -6.765625 26.546875 -9.203125 L 31.125 -4.96875 C 29.65625 -3.175781 27.832031 -1.8125 25.65625 -0.875 C 23.488281 0.0625 21.070312 0.53125 18.40625 0.53125 Z M 18.40625 0.53125 "></path></g></g></g><g fill="#ea4335" fill-opacity="1"><g transform="translate(140.212297, 306.725605)"><g><path d="M 14.4375 0.359375 C 11.945312 0.359375 9.707031 -0.160156 7.71875 -1.203125 C 5.738281 -2.242188 4.191406 -3.6875 3.078125 -5.53125 C 1.960938 -7.382812 1.40625 -9.488281 1.40625 -11.84375 C 1.40625 -14.1875 1.960938 -16.28125 3.078125 -18.125 C 4.191406 -19.976562 5.738281 -21.425781 7.71875 -22.46875 C 9.707031 -23.507812 11.945312 -24.03125 14.4375 -24.03125 C 16.925781 -24.03125 19.15625 -23.507812 21.125 -22.46875 C 23.09375 -21.425781 24.632812 -19.976562 25.75 -18.125 C 26.863281 -16.28125 27.421875 -14.1875 27.421875 -11.84375 C 27.421875 -9.488281 26.863281 -7.382812 25.75 -5.53125 C 24.632812 -3.6875 23.09375 -2.242188 21.125 -1.203125 C 19.15625 -0.160156 16.925781 0.359375 14.4375 0.359375 Z M 14.4375 -5.28125 C 16.195312 -5.28125 17.640625 -5.875 18.765625 -7.0625 C 19.898438 -8.25 20.46875 -9.84375 20.46875 -11.84375 C 20.46875 -13.832031 19.898438 -15.421875 18.765625 -16.609375 C 17.640625 -17.804688 16.195312 -18.40625 14.4375 -18.40625 C 12.675781 -18.40625 11.222656 -17.804688 10.078125 -16.609375 C 8.929688 -15.421875 8.359375 -13.832031 8.359375 -11.84375 C 8.359375 -9.84375 8.929688 -8.25 10.078125 -7.0625 C 11.222656 -5.875 12.675781 -5.28125 14.4375 -5.28125 Z M 14.4375 -5.28125 "></path></g></g></g><g fill="#fbbc05" fill-opacity="1"><g transform="translate(171.278705, 306.725605)"><g><path d="M 3.171875 -32.65625 L 10.03125 -32.65625 L 10.03125 0 L 3.171875 0 Z M 3.171875 -32.65625 "></path></g></g></g><g fill="#4285f4" fill-opacity="1"><g transform="translate(186.770891, 306.725605)"><g><path d="M 14.4375 0.359375 C 11.945312 0.359375 9.707031 -0.160156 7.71875 -1.203125 C 5.738281 -2.242188 4.191406 -3.6875 3.078125 -5.53125 C 1.960938 -7.382812 1.40625 -9.488281 1.40625 -11.84375 C 1.40625 -14.1875 1.960938 -16.28125 3.078125 -18.125 C 4.191406 -19.976562 5.738281 -21.425781 7.71875 -22.46875 C 9.707031 -23.507812 11.945312 -24.03125 14.4375 -24.03125 C 16.925781 -24.03125 19.15625 -23.507812 21.125 -22.46875 C 23.09375 -21.425781 24.632812 -19.976562 25.75 -18.125 C 26.863281 -16.28125 27.421875 -14.1875 27.421875 -11.84375 C 27.421875 -9.488281 26.863281 -7.382812 25.75 -5.53125 C 24.632812 -3.6875 23.09375 -2.242188 21.125 -1.203125 C 19.15625 -0.160156 16.925781 0.359375 14.4375 0.359375 Z M 14.4375 -5.28125 C 16.195312 -5.28125 17.640625 -5.875 18.765625 -7.0625 C 19.898438 -8.25 20.46875 -9.84375 20.46875 -11.84375 C 20.46875 -13.832031 19.898438 -15.421875 18.765625 -16.609375 C 17.640625 -17.804688 16.195312 -18.40625 14.4375 -18.40625 C 12.675781 -18.40625 11.222656 -17.804688 10.078125 -16.609375 C 8.929688 -15.421875 8.359375 -13.832031 8.359375 -11.84375 C 8.359375 -9.84375 8.929688 -8.25 10.078125 -7.0625 C 11.222656 -5.875 12.675781 -5.28125 14.4375 -5.28125 Z M 14.4375 -5.28125 "></path></g></g></g><g fill="#34a853" fill-opacity="1"><g transform="translate(217.837292, 306.725605)"><g><path d="M 27.03125 -23.6875 L 27.03125 0 L 20.515625 0 L 20.515625 -2.8125 C 19.597656 -1.789062 18.507812 -1.003906 17.25 -0.453125 C 15.988281 0.0859375 14.625 0.359375 13.15625 0.359375 C 10.050781 0.359375 7.585938 -0.535156 5.765625 -2.328125 C 3.941406 -4.117188 3.03125 -6.773438 3.03125 -10.296875 L 3.03125 -23.6875 L 9.90625 -23.6875 L 9.90625 -11.3125 C 9.90625 -7.5 11.503906 -5.59375 14.703125 -5.59375 C 16.347656 -5.59375 17.664062 -6.125 18.65625 -7.1875 C 19.65625 -8.257812 20.15625 -9.851562 20.15625 -11.96875 L 20.15625 -23.6875 Z M 27.03125 -23.6875 "></path></g></g></g><g fill="#ea4335" fill-opacity="1"><g transform="translate(250.309949, 306.725605)"><g><path d="M 9.734375 -20.5625 C 10.546875 -21.695312 11.648438 -22.554688 13.046875 -23.140625 C 14.441406 -23.734375 16.050781 -24.03125 17.875 -24.03125 L 17.875 -17.6875 C 17.101562 -17.75 16.585938 -17.78125 16.328125 -17.78125 C 14.359375 -17.78125 12.816406 -17.226562 11.703125 -16.125 C 10.585938 -15.03125 10.03125 -13.382812 10.03125 -11.1875 L 10.03125 0 L 3.171875 0 L 3.171875 -23.6875 L 9.734375 -23.6875 Z M 9.734375 -20.5625 "></path></g></g></g><g fill="#4285f4" fill-opacity="1"><g transform="translate(101.069891, 266.051234)"><g><path d="M 2.859375 -6.65625 L 2.859375 -4.5 L 6.640625 -4.5 L 6.640625 -2.96875 L 2.859375 -2.96875 L 2.859375 0 L 0.96875 0 L 0.96875 -8.171875 L 7.140625 -8.171875 L 7.140625 -6.65625 Z M 2.859375 -6.65625 "></path></g></g></g><g fill="#4285f4" fill-opacity="1"><g transform="translate(110.926242, 266.051234)"><g><path d="M 4.921875 0.140625 C 4.078125 0.140625 3.3125 -0.0390625 2.625 -0.40625 C 1.945312 -0.769531 1.414062 -1.273438 1.03125 -1.921875 C 0.644531 -2.566406 0.453125 -3.285156 0.453125 -4.078125 C 0.453125 -4.878906 0.644531 -5.601562 1.03125 -6.25 C 1.414062 -6.894531 1.945312 -7.398438 2.625 -7.765625 C 3.3125 -8.128906 4.078125 -8.3125 4.921875 -8.3125 C 5.773438 -8.3125 6.539062 -8.128906 7.21875 -7.765625 C 7.894531 -7.398438 8.425781 -6.894531 8.8125 -6.25 C 9.195312 -5.601562 9.390625 -4.878906 9.390625 -4.078125 C 9.390625 -3.285156 9.195312 -2.566406 8.8125 -1.921875 C 8.425781 -1.273438 7.894531 -0.769531 7.21875 -0.40625 C 6.539062 -0.0390625 5.773438 0.140625 4.921875 0.140625 Z M 4.921875 -1.46875 C 5.410156 -1.46875 5.847656 -1.578125 6.234375 -1.796875 C 6.617188 -2.023438 6.921875 -2.335938 7.140625 -2.734375 C 7.367188 -3.128906 7.484375 -3.578125 7.484375 -4.078125 C 7.484375 -4.585938 7.367188 -5.039062 7.140625 -5.4375 C 6.921875 -5.832031 6.617188 -6.140625 6.234375 -6.359375 C 5.847656 -6.585938 5.410156 -6.703125 4.921875 -6.703125 C 4.441406 -6.703125 4.003906 -6.585938 3.609375 -6.359375 C 3.222656 -6.140625 2.921875 -5.832031 2.703125 -5.4375 C 2.484375 -5.039062 2.375 -4.585938 2.375 -4.078125 C 2.375 -3.578125 2.484375 -3.128906 2.703125 -2.734375 C 2.921875 -2.335938 3.222656 -2.023438 3.609375 -1.796875 C 4.003906 -1.578125 4.441406 -1.46875 4.921875 -1.46875 Z M 4.921875 -1.46875 "></path></g></g></g><g fill="#4285f4" fill-opacity="1"><g transform="translate(123.17292, 266.051234)"><g><path d="M 4.59375 0.140625 C 3.425781 0.140625 2.519531 -0.179688 1.875 -0.828125 C 1.226562 -1.472656 0.90625 -2.394531 0.90625 -3.59375 L 0.90625 -8.171875 L 2.796875 -8.171875 L 2.796875 -3.671875 C 2.796875 -2.203125 3.398438 -1.46875 4.609375 -1.46875 C 5.203125 -1.46875 5.65625 -1.644531 5.96875 -2 C 6.28125 -2.351562 6.4375 -2.910156 6.4375 -3.671875 L 6.4375 -8.171875 L 8.296875 -8.171875 L 8.296875 -3.59375 C 8.296875 -2.394531 7.96875 -1.472656 7.3125 -0.828125 C 6.664062 -0.179688 5.757812 0.140625 4.59375 0.140625 Z M 4.59375 0.140625 "></path></g></g></g><g fill="#4285f4" fill-opacity="1"><g transform="translate(134.766634, 266.051234)"><g><path d="M 8.46875 -8.171875 L 8.46875 0 L 6.90625 0 L 2.84375 -4.953125 L 2.84375 0 L 0.96875 0 L 0.96875 -8.171875 L 2.53125 -8.171875 L 6.59375 -3.203125 L 6.59375 -8.171875 Z M 8.46875 -8.171875 "></path></g></g></g><g fill="#4285f4" fill-opacity="1"><g transform="translate(146.593541, 266.051234)"><g><path d="M 0.96875 -8.171875 L 4.6875 -8.171875 C 5.570312 -8.171875 6.351562 -8 7.03125 -7.65625 C 7.707031 -7.320312 8.234375 -6.847656 8.609375 -6.234375 C 8.992188 -5.617188 9.1875 -4.898438 9.1875 -4.078125 C 9.1875 -3.265625 8.992188 -2.550781 8.609375 -1.9375 C 8.234375 -1.320312 7.707031 -0.84375 7.03125 -0.5 C 6.351562 -0.164062 5.570312 0 4.6875 0 L 0.96875 0 Z M 4.59375 -1.546875 C 5.40625 -1.546875 6.050781 -1.773438 6.53125 -2.234375 C 7.019531 -2.691406 7.265625 -3.304688 7.265625 -4.078125 C 7.265625 -4.859375 7.019531 -5.476562 6.53125 -5.9375 C 6.050781 -6.394531 5.40625 -6.625 4.59375 -6.625 L 2.859375 -6.625 L 2.859375 -1.546875 Z M 4.59375 -1.546875 "></path></g></g></g><g fill="#4285f4" fill-opacity="1"><g transform="translate(158.630333, 266.051234)"><g><path d="M 6.34375 -1.75 L 2.5625 -1.75 L 1.828125 0 L -0.109375 0 L 3.53125 -8.171875 L 5.40625 -8.171875 L 9.0625 0 L 7.078125 0 Z M 5.75 -3.1875 L 4.453125 -6.3125 L 3.15625 -3.1875 Z M 5.75 -3.1875 "></path></g></g></g><g fill="#4285f4" fill-opacity="1"><g transform="translate(169.967513, 266.051234)"><g><path d="M 2.65625 -6.625 L 0.046875 -6.625 L 0.046875 -8.171875 L 7.171875 -8.171875 L 7.171875 -6.625 L 4.546875 -6.625 L 4.546875 0 L 2.65625 0 Z M 2.65625 -6.625 "></path></g></g></g><g fill="#4285f4" fill-opacity="1"><g transform="translate(179.579005, 266.051234)"><g><path d="M 0.96875 -8.171875 L 2.859375 -8.171875 L 2.859375 0 L 0.96875 0 Z M 0.96875 -8.171875 "></path></g></g></g><g fill="#4285f4" fill-opacity="1"><g transform="translate(185.809065, 266.051234)"><g><path d="M 4.921875 0.140625 C 4.078125 0.140625 3.3125 -0.0390625 2.625 -0.40625 C 1.945312 -0.769531 1.414062 -1.273438 1.03125 -1.921875 C 0.644531 -2.566406 0.453125 -3.285156 0.453125 -4.078125 C 0.453125 -4.878906 0.644531 -5.601562 1.03125 -6.25 C 1.414062 -6.894531 1.945312 -7.398438 2.625 -7.765625 C 3.3125 -8.128906 4.078125 -8.3125 4.921875 -8.3125 C 5.773438 -8.3125 6.539062 -8.128906 7.21875 -7.765625 C 7.894531 -7.398438 8.425781 -6.894531 8.8125 -6.25 C 9.195312 -5.601562 9.390625 -4.878906 9.390625 -4.078125 C 9.390625 -3.285156 9.195312 -2.566406 8.8125 -1.921875 C 8.425781 -1.273438 7.894531 -0.769531 7.21875 -0.40625 C 6.539062 -0.0390625 5.773438 0.140625 4.921875 0.140625 Z M 4.921875 -1.46875 C 5.410156 -1.46875 5.847656 -1.578125 6.234375 -1.796875 C 6.617188 -2.023438 6.921875 -2.335938 7.140625 -2.734375 C 7.367188 -3.128906 7.484375 -3.578125 7.484375 -4.078125 C 7.484375 -4.585938 7.367188 -5.039062 7.140625 -5.4375 C 6.921875 -5.832031 6.617188 -6.140625 6.234375 -6.359375 C 5.847656 -6.585938 5.410156 -6.703125 4.921875 -6.703125 C 4.441406 -6.703125 4.003906 -6.585938 3.609375 -6.359375 C 3.222656 -6.140625 2.921875 -5.832031 2.703125 -5.4375 C 2.484375 -5.039062 2.375 -4.585938 2.375 -4.078125 C 2.375 -3.578125 2.484375 -3.128906 2.703125 -2.734375 C 2.921875 -2.335938 3.222656 -2.023438 3.609375 -1.796875 C 4.003906 -1.578125 4.441406 -1.46875 4.921875 -1.46875 Z M 4.921875 -1.46875 "></path></g></g></g><g fill="#4285f4" fill-opacity="1"><g transform="translate(198.055747, 266.051234)"><g><path d="M 8.46875 -8.171875 L 8.46875 0 L 6.90625 0 L 2.84375 -4.953125 L 2.84375 0 L 0.96875 0 L 0.96875 -8.171875 L 2.53125 -8.171875 L 6.59375 -3.203125 L 6.59375 -8.171875 Z M 8.46875 -8.171875 "></path></g></g></g><g fill="#4285f4" fill-opacity="1"><g transform="translate(209.882655, 266.051234)"><g></g></g></g><g fill="#4285f4" fill-opacity="1"><g transform="translate(215.588015, 266.051234)"><g><path d="M 7.9375 -1.71875 L 6.609375 -1.71875 L 6.609375 0 L 4.765625 0 L 4.765625 -1.71875 L 0.359375 -1.71875 L 0.359375 -2.984375 L 4.21875 -8.171875 L 6.203125 -8.171875 L 2.625 -3.25 L 4.828125 -3.25 L 4.828125 -4.78125 L 6.609375 -4.78125 L 6.609375 -3.25 L 7.9375 -3.25 Z M 7.9375 -1.71875 "></path></g></g></g><g fill="#4285f4" fill-opacity="1"><g transform="translate(226.027372, 266.051234)"><g><path d="M 13.3125 -8.171875 L 10.640625 0 L 8.609375 0 L 6.8125 -5.53125 L 4.953125 0 L 2.9375 0 L 0.25 -8.171875 L 2.21875 -8.171875 L 4.0625 -2.421875 L 5.984375 -8.171875 L 7.734375 -8.171875 L 9.609375 -2.375 L 11.515625 -8.171875 Z M 13.3125 -8.171875 "></path></g></g></g><g fill="#4285f4" fill-opacity="1"><g transform="translate(241.993618, 266.051234)"><g><path d="M 6.34375 -1.75 L 2.5625 -1.75 L 1.828125 0 L -0.109375 0 L 3.53125 -8.171875 L 5.40625 -8.171875 L 9.0625 0 L 7.078125 0 Z M 5.75 -3.1875 L 4.453125 -6.3125 L 3.15625 -3.1875 Z M 5.75 -3.1875 "></path></g></g></g><g fill="#4285f4" fill-opacity="1"><g transform="translate(253.330798, 266.051234)"><g><path d="M 6.171875 0 L 4.59375 -2.28125 L 2.859375 -2.28125 L 2.859375 0 L 0.96875 0 L 0.96875 -8.171875 L 4.5 -8.171875 C 5.226562 -8.171875 5.859375 -8.050781 6.390625 -7.8125 C 6.921875 -7.570312 7.328125 -7.226562 7.609375 -6.78125 C 7.898438 -6.332031 8.046875 -5.804688 8.046875 -5.203125 C 8.046875 -4.597656 7.898438 -4.070312 7.609375 -3.625 C 7.316406 -3.1875 6.90625 -2.851562 6.375 -2.625 L 8.203125 0 Z M 6.140625 -5.203125 C 6.140625 -5.660156 5.988281 -6.007812 5.6875 -6.25 C 5.394531 -6.5 4.96875 -6.625 4.40625 -6.625 L 2.859375 -6.625 L 2.859375 -3.78125 L 4.40625 -3.78125 C 4.96875 -3.78125 5.394531 -3.90625 5.6875 -4.15625 C 5.988281 -4.40625 6.140625 -4.753906 6.140625 -5.203125 Z M 6.140625 -5.203125 "></path></g></g></g><g fill="#4285f4" fill-opacity="1"><g transform="translate(264.306517, 266.051234)"><g><path d="M 0.96875 -8.171875 L 4.6875 -8.171875 C 5.570312 -8.171875 6.351562 -8 7.03125 -7.65625 C 7.707031 -7.320312 8.234375 -6.847656 8.609375 -6.234375 C 8.992188 -5.617188 9.1875 -4.898438 9.1875 -4.078125 C 9.1875 -3.265625 8.992188 -2.550781 8.609375 -1.9375 C 8.234375 -1.320312 7.707031 -0.84375 7.03125 -0.5 C 6.351562 -0.164062 5.570312 0 4.6875 0 L 0.96875 0 Z M 4.59375 -1.546875 C 5.40625 -1.546875 6.050781 -1.773438 6.53125 -2.234375 C 7.019531 -2.691406 7.265625 -3.304688 7.265625 -4.078125 C 7.265625 -4.859375 7.019531 -5.476562 6.53125 -5.9375 C 6.050781 -6.394531 5.40625 -6.625 4.59375 -6.625 L 2.859375 -6.625 L 2.859375 -1.546875 Z M 4.59375 -1.546875 "></path></g></g></g></svg>